<svg xmlns="http://www.w3.org/2000/svg" version="1.1" xmlns:xlink="http://www.w3.org/1999/xlink" xmlns:svgjs="http://svgjs.dev/svgjs" width="1000" height="1000" viewBox="0 0 1000 1000"><rect width="1000" height="1000" fill="#b10dc9"></rect><g transform="matrix(0.7,0,0,0.7,150,106.25)"><svg viewBox="0 0 320 360" data-background-color="#b10dc9" preserveAspectRatio="xMidYMid meet" height="1125" width="1000" xmlns="http://www.w3.org/2000/svg" xmlns:xlink="http://www.w3.org/1999/xlink"><defs></defs><g id="tight-bounds" transform="matrix(1,0,0,1,0,0)"><svg viewBox="0 0 320 360" height="360" width="320"><g><svg></svg></g><g><svg viewBox="0 0 320 360" height="360" width="320"><g><path d="M160 42.18c72.417 0 131.943 56.114 137.63 127.014h22.37c-1.137-17.82-5.308-34.882-12.133-51.185-7.962-18.957-19.716-36.398-34.502-50.805-14.787-14.787-31.848-26.161-50.806-34.503-20.095-8.341-40.948-12.891-62.559-12.891-21.611 0-42.464 4.171-62.559 12.512-18.957 7.962-36.398 19.716-50.806 34.503-14.787 14.787-26.161 31.848-34.502 50.805-6.825 16.303-10.995 33.744-12.133 51.185h22.37c5.687-70.521 65.213-126.635 137.63-126.635zM160 318.199c-72.417 0-131.943-56.114-137.63-127.014h-22.37c1.137 17.82 5.308 34.882 12.133 51.185 7.962 18.957 19.716 36.398 34.502 50.805 14.787 14.787 31.848 26.161 50.806 34.503 19.716 8.341 40.569 12.512 62.559 12.512 21.991 0 42.464-4.171 62.559-12.512 18.957-7.962 36.398-19.716 50.806-34.503 14.787-14.787 26.161-31.848 34.502-50.805 6.825-16.303 10.995-33.744 12.133-51.185h-22.37c-5.687 70.9-65.213 127.014-137.63 127.014z" fill="#ffffff" data-fill-palette-color="tertiary"></path></g><g transform="matrix(1,0,0,1,56.000000000000014,100.86622011241839)"><svg viewBox="0 0 207.99999999999997 158.26755977516322" height="158.26755977516322" width="207.99999999999997"><g><svg viewBox="0 0 208.00000000000003 158.26755977516325" height="158.26755977516322" width="207.99999999999997"><g transform="matrix(1,0,0,1,0,132.80318502119397)"><svg viewBox="0 0 208.00000000000003 25.464374753969295" height="25.464374753969295" width="208.00000000000003"><g><svg viewBox="0 0 208.00000000000003 25.464374753969295" height="25.464374753969295" width="208.00000000000003"><g><svg viewBox="0 0 208.00000000000003 25.464374753969295" height="25.464374753969295" width="208.00000000000003"><g transform="matrix(1,0,0,1,0,0)"><svg width="208.00000000000003" viewBox="1.5 -35.650001525878906 381.0199890136719 46.650001525878906" height="25.464374753969295" data-palette-color="#ffffff"><path d="M23.9 0L19.4 0Q15.4-0.05 12.1-1.43 8.8-2.8 6.43-5.2 4.05-7.6 2.78-10.75 1.5-13.9 1.5-17.5L1.5-17.5Q1.5-21.1 2.78-24.25 4.05-27.4 6.43-29.8 8.8-32.2 12.1-33.58 15.4-34.95 19.4-35L19.4-35 23.9-35 23.9-30.75 19.55-30.75Q16.7-30.75 14.3-29.73 11.9-28.7 10.13-26.93 8.35-25.15 7.35-22.75 6.35-20.35 6.35-17.5L6.35-17.5Q6.35-14.7 7.35-12.28 8.35-9.85 10.13-8.08 11.9-6.3 14.3-5.3 16.7-4.3 19.55-4.25L19.55-4.25 23.9-4.25 23.9 0ZM34.3 0L29.5 0 29.5-35 44.85-35Q48.15-35 50.85-33.58 53.55-32.15 55.15-29.58 56.75-27 56.75-23.55L56.75-23.55Q56.75-20.05 54.97-17.38 53.2-14.7 50.2-13.4L50.2-13.4 53.95-5.8Q54.35-5 54.82-4.63 55.3-4.25 56.2-4.25L56.2-4.25 58.7-4.25 58.7 0 55.45 0Q53.5 0 52.02-1 50.55-2 49.6-3.7L49.6-3.7 45.4-12.25Q44.9-12.2 44.32-12.18 43.75-12.15 43.15-12.15L43.15-12.15 34.3-12.15 34.3 0ZM34.3-30.75L34.3-16.4 44.2-16.4Q46.35-16.4 48.12-17.25 49.9-18.1 50.92-19.7 51.95-21.3 51.95-23.55L51.95-23.55Q51.95-25.85 50.9-27.45 49.85-29.05 48.1-29.9 46.35-30.75 44.25-30.75L44.25-30.75 34.3-30.75ZM79.89 0.65L79.89 0.65Q75.75 0.65 72.39-0.78 69.05-2.2 66.67-4.7 64.3-7.2 62.99-10.5 61.7-13.8 61.7-17.55L61.7-17.55Q61.7-21.3 62.99-24.58 64.3-27.85 66.67-30.35 69.05-32.85 72.39-34.25 75.75-35.65 79.89-35.65L79.89-35.65Q84.05-35.65 87.39-34.25 90.75-32.85 93.12-30.35 95.5-27.85 96.8-24.58 98.09-21.3 98.09-17.55L98.09-17.55Q98.09-13.8 96.8-10.5 95.5-7.2 93.12-4.7 90.75-2.2 87.39-0.78 84.05 0.65 79.89 0.65ZM79.89-3.6L79.89-3.6Q82.75-3.6 85.19-4.65 87.64-5.7 89.47-7.6 91.3-9.5 92.3-12.03 93.3-14.55 93.3-17.55L93.3-17.55Q93.3-20.5 92.3-23.05 91.3-25.6 89.47-27.48 87.64-29.35 85.19-30.38 82.75-31.4 79.89-31.4L79.89-31.4Q77-31.4 74.55-30.38 72.09-29.35 70.3-27.48 68.5-25.6 67.5-23.08 66.5-20.55 66.5-17.55L66.5-17.55Q66.5-14.55 67.5-12.03 68.5-9.5 70.3-7.6 72.09-5.7 74.55-4.65 77-3.6 79.89-3.6ZM119.54 0L103.84 0 103.84-4.25 118.99-4.25Q120.74-4.25 121.99-5.08 123.24-5.9 123.94-7.2 124.64-8.5 124.64-9.95L124.64-9.95Q124.64-11.45 123.97-12.73 123.29-14 122.07-14.78 120.84-15.55 119.09-15.55L119.09-15.55 112.49-15.55Q109.54-15.55 107.29-16.78 105.04-18 103.77-20.18 102.49-22.35 102.49-25.1L102.49-25.1Q102.49-27.9 103.72-30.15 104.94-32.4 107.17-33.7 109.39-35 112.29-35L112.29-35 127.14-35 127.14-30.75 112.74-30.75Q111.09-30.75 109.84-29.98 108.59-29.2 107.94-27.98 107.29-26.75 107.29-25.35L107.29-25.35Q107.29-24 107.92-22.78 108.54-21.55 109.77-20.8 110.99-20.05 112.59-20.05L112.59-20.05 119.34-20.05Q122.49-20.05 124.74-18.8 126.99-17.55 128.19-15.4 129.39-13.25 129.39-10.5L129.39-10.5Q129.39-7.45 128.17-5.08 126.94-2.7 124.69-1.35 122.44 0 119.54 0L119.54 0ZM150.89 0L135.19 0 135.19-4.25 150.34-4.25Q152.09-4.25 153.34-5.08 154.59-5.9 155.29-7.2 155.99-8.5 155.99-9.95L155.99-9.95Q155.99-11.45 155.31-12.73 154.64-14 153.41-14.78 152.19-15.55 150.44-15.55L150.44-15.55 143.84-15.55Q140.89-15.55 138.64-16.78 136.39-18 135.11-20.18 133.84-22.35 133.84-25.1L133.84-25.1Q133.84-27.9 135.06-30.15 136.29-32.4 138.51-33.7 140.74-35 143.64-35L143.64-35 158.49-35 158.49-30.75 144.09-30.75Q142.44-30.75 141.19-29.98 139.94-29.2 139.29-27.98 138.64-26.75 138.64-25.35L138.64-25.35Q138.64-24 139.26-22.78 139.89-21.55 141.11-20.8 142.34-20.05 143.94-20.05L143.94-20.05 150.69-20.05Q153.84-20.05 156.09-18.8 158.34-17.55 159.54-15.4 160.74-13.25 160.74-10.5L160.74-10.5Q160.74-7.45 159.51-5.08 158.29-2.7 156.04-1.35 153.79 0 150.89 0L150.89 0ZM183.74 0L165.49 0 165.49-4.25 172.24-4.25 172.24-30.75 165.49-30.75 165.49-35 183.74-35 183.74-30.75 177.04-30.75 177.04-4.25 183.74-4.25 183.74 0ZM213.58 0.6L213.58 0.6Q210.78 0.6 208.66-0.68 206.53-1.95 205.33-4.15 204.13-6.35 204.13-9.1L204.13-9.1 204.13-26.55Q204.13-27.9 203.48-29 202.83-30.1 201.73-30.75 200.63-31.4 199.33-31.4L199.33-31.4Q198.03-31.4 196.96-30.75 195.88-30.1 195.26-29 194.63-27.9 194.63-26.55L194.63-26.55 194.63 0 189.83 0 189.83-25.9Q189.83-28.65 191.03-30.85 192.23-33.05 194.38-34.33 196.53-35.6 199.33-35.6L199.33-35.6Q202.18-35.6 204.33-34.33 206.48-33.05 207.68-30.85 208.88-28.65 208.88-25.9L208.88-25.9 208.88-8.45Q208.88-7.1 209.53-6 210.18-4.9 211.26-4.25 212.33-3.6 213.58-3.6L213.58-3.6Q214.83-3.6 215.88-4.25 216.93-4.9 217.56-6 218.18-7.1 218.18-8.45L218.18-8.45 218.18-35 222.98-35 222.98-9.1Q222.98-6.35 221.78-4.15 220.58-1.95 218.48-0.68 216.38 0.6 213.58 0.6ZM256.13 11L256.13 11Q253.63 11 251.71 10.03 249.78 9.05 248.68 7.15 247.58 5.25 247.58 2.6L247.58 2.6Q247.58 1.95 247.63 1.28 247.68 0.6 247.78-0.1L247.78-0.1Q243.68 0.15 240.18-1.05 236.68-2.25 234.08-4.63 231.48-7 230.03-10.38 228.58-13.75 228.58-17.8L228.58-17.8Q228.58-21.5 229.83-24.73 231.08-27.95 233.43-30.4 235.78-32.85 239.11-34.23 242.43-35.6 246.48-35.6L246.48-35.6Q250.53-35.6 253.83-34.25 257.13-32.9 259.48-30.48 261.83-28.05 263.11-24.9 264.38-21.75 264.38-18.1L264.38-18.1 264.38 2.05Q264.38 4.75 263.38 6.78 262.38 8.8 260.56 9.9 258.73 11 256.13 11ZM255.83 6.7L255.83 6.7Q257.48 6.7 258.53 5.53 259.58 4.35 259.58 2.15L259.58 2.15 259.58-9.75Q257.03-8.1 255.53-6.4 254.03-4.7 253.31-3.1 252.58-1.5 252.36-0.15 252.13 1.2 252.13 2.1L252.13 2.1Q252.13 3.55 252.66 4.58 253.18 5.6 254.03 6.15 254.88 6.7 255.83 6.7ZM246.48-4.2L246.48-4.2Q247.28-4.2 247.98-4.28 248.68-4.35 249.48-4.55L249.48-4.55Q250.18-6.25 251.46-8 252.73-9.75 254.71-11.48 256.68-13.2 259.58-14.7L259.58-14.7 259.58-18.1Q259.58-20.95 258.61-23.38 257.63-25.8 255.86-27.58 254.08-29.35 251.68-30.38 249.28-31.4 246.48-31.4L246.48-31.4Q243.63-31.4 241.26-30.38 238.88-29.35 237.11-27.5 235.33-25.65 234.36-23.18 233.38-20.7 233.38-17.8L233.38-17.8Q233.38-14.9 234.36-12.43 235.33-9.95 237.11-8.1 238.88-6.25 241.26-5.23 243.63-4.2 246.48-4.2ZM295.83 0L284.63 0 284.63-35 295.83-35Q301.43-35 305.5-32.75 309.58-30.5 311.83-26.55 314.08-22.6 314.08-17.5L314.08-17.5Q314.08-12.4 311.83-8.45 309.58-4.5 305.5-2.25 301.43 0 295.83 0L295.83 0ZM289.43-30.75L289.43-4.25 295.88-4.25Q299.78-4.25 302.8-5.85 305.83-7.45 307.58-10.43 309.33-13.4 309.33-17.5L309.33-17.5Q309.33-21.65 307.58-24.6 305.83-27.55 302.8-29.15 299.78-30.75 295.88-30.75L295.88-30.75 289.43-30.75ZM336.48 0.65L336.48 0.65Q332.32 0.65 328.98-0.78 325.63-2.2 323.25-4.7 320.88-7.2 319.57-10.5 318.28-13.8 318.28-17.55L318.28-17.55Q318.28-21.3 319.57-24.58 320.88-27.85 323.25-30.35 325.63-32.85 328.98-34.25 332.32-35.65 336.48-35.65L336.48-35.65Q340.63-35.65 343.98-34.25 347.32-32.85 349.7-30.35 352.07-27.85 353.38-24.58 354.68-21.3 354.68-17.55L354.68-17.55Q354.68-13.8 353.38-10.5 352.07-7.2 349.7-4.7 347.32-2.2 343.98-0.78 340.63 0.65 336.48 0.65ZM336.48-3.6L336.48-3.6Q339.32-3.6 341.78-4.65 344.23-5.7 346.05-7.6 347.88-9.5 348.88-12.03 349.88-14.55 349.88-17.55L349.88-17.55Q349.88-20.5 348.88-23.05 347.88-25.6 346.05-27.48 344.23-29.35 341.78-30.38 339.32-31.4 336.48-31.4L336.48-31.4Q333.57-31.4 331.13-30.38 328.68-29.35 326.88-27.48 325.07-25.6 324.07-23.08 323.07-20.55 323.07-17.55L323.07-17.55Q323.07-14.55 324.07-12.03 325.07-9.5 326.88-7.6 328.68-5.7 331.13-4.65 333.57-3.6 336.48-3.6ZM378.67 0L376.32 0Q373.47 0 371.4-1.23 369.32-2.45 368.2-4.58 367.07-6.7 367.07-9.35L367.07-9.35 367.07-30.75 356.42-30.75 356.42-35 382.52-35 382.52-30.75 371.87-30.75 371.87-8.75Q371.87-6.8 373.1-5.53 374.32-4.25 376.37-4.25L376.37-4.25 378.67-4.25 378.67 0Z" opacity="1" transform="matrix(1,0,0,1,0,0)" fill="#ffffff" class="undefined-text-0" data-fill-palette-color="primary" id="text-0"></path></svg></g></svg></g></svg></g></svg></g><g transform="matrix(1,0,0,1,43.60993522382108,0)"><svg viewBox="0 0 120.78012955235786 120.78012955235786" height="120.78012955235786" width="120.78012955235786"><g><svg></svg></g><g id="icon-0"><svg viewBox="0 0 120.78012955235786 120.78012955235786" height="120.78012955235786" width="120.78012955235786"><g><path d="M0 60.39c0-33.353 27.038-60.39 60.39-60.39 33.353 0 60.39 27.038 60.39 60.39 0 33.353-27.038 60.39-60.39 60.39-33.353 0-60.39-27.038-60.39-60.39zM60.39 118.484c32.084 0 58.094-26.009 58.094-58.094 0-32.084-26.009-58.094-58.094-58.094-32.084 0-58.094 26.009-58.094 58.094 0 32.084 26.009 58.094 58.094 58.094z" data-fill-palette-color="tertiary" fill="#ffffff" stroke="transparent"></path></g><g transform="matrix(1,0,0,1,28.401076418778146,28.401076418778146)"><svg viewBox="0 0 63.97797671480157 63.97797671480157" height="63.97797671480157" width="63.97797671480157"><g><svg xmlns="http://www.w3.org/2000/svg" xmlns:xlink="http://www.w3.org/1999/xlink" version="1.1" x="0" y="0" viewBox="16 18 46 46" enable-background="new 0 0 80 80" xml:space="preserve" height="63.97797671480157" width="63.97797671480157" class="icon-x-0" data-fill-palette-color="accent" id="x-0"><g fill="#ffffff" data-fill-palette-color="accent"><path fill="#ffffff" d="M39 64c-12.7 0-23-10.3-23-23s10.3-23 23-23 23 10.3 23 23S51.7 64 39 64zM39 20c-11.6 0-21 9.4-21 21s9.4 21 21 21 21-9.4 21-21S50.6 20 39 20z" data-fill-palette-color="accent"></path></g><g fill="#ffffff" data-fill-palette-color="accent"><path fill="#ffffff" d="M39 59c-9.9 0-18-8.1-18-18s8.1-18 18-18 18 8.1 18 18S48.9 59 39 59z" data-fill-palette-color="accent"></path></g></svg></g></svg></g></svg></g></svg></g><g></g></svg></g></svg></g></svg></g></svg><rect width="320" height="360" fill="none" stroke="none" visibility="hidden"></rect></g></svg></g></svg>